<svg width="400" height="195" viewBox="0 0 400 195" fill="none" xmlns="http://www.w3.org/2000/svg">
<path d="M67.688 11.272V0.471998H0.08V11.272H27.152V49H40.616V11.272H67.688ZM134.728 49V0.471998H121.192V17.32H83.9677V0.471998H70.4317V49H83.9677V27.976H121.192V49H134.728ZM199.218 49V38.704H154.866V27.904H199.218V18.04H154.866V10.768H199.218V0.471998H141.33V49H199.218ZM61.64 101.344V90.904H17.288V82.768H61.64V72.472H3.752V121H17.288V101.344H61.64ZM130.502 72.472H116.966V100.12C116.966 107.68 109.55 112.288 98.3182 112.288C87.1582 112.288 79.6702 107.68 79.6702 100.12V72.472H66.1342V101.848C66.1342 117.976 84.7822 122.296 98.3182 122.296C112.142 122.296 130.502 117.976 130.502 101.848V72.472ZM200.907 83.272V72.472H133.299V83.272H160.371V121H173.835V83.272H200.907ZM268.01 72.472H254.474V100.12C254.474 107.68 247.058 112.288 235.826 112.288C224.666 112.288 217.178 107.68 217.178 100.12V72.472H203.642V101.848C203.642 117.976 222.29 122.296 235.826 122.296C249.65 122.296 268.01 117.976 268.01 101.848V72.472ZM337.055 121L318.407 102.208H320.567C329.135 101.776 335.903 96.52 335.903 87.376C335.903 77.296 327.983 72.472 318.695 72.472H274.127V121H287.663V102.928H302.351L318.983 121H337.055ZM322.655 87.808C322.655 91.624 319.847 93.28 316.031 93.28H287.663V82.696H315.527C319.775 82.696 322.655 84.496 322.655 87.808ZM399.679 121V110.704H355.327V99.904H399.679V90.04H355.327V82.768H399.679V72.472H341.791V121H399.679ZM17.504 193V144.472H3.968V193H17.504ZM83.6381 177.304C83.6381 166 72.7661 163.768 52.8221 162.328C40.5101 161.392 36.4781 160.384 36.4781 157.432C36.4781 154.48 43.0301 153.328 54.7661 153.328C64.0541 153.328 72.4781 154.552 79.1741 157.216L82.0541 146.992C74.9981 144.112 64.6301 143.176 54.8381 143.176C34.5341 143.176 22.5101 148.36 22.5101 158.368C22.5101 169.168 32.4461 172.264 52.1021 173.776C65.1341 174.784 69.8861 175.576 69.8861 178.96C69.8861 182.272 64.5581 184.144 51.3821 184.144C41.2301 184.144 32.3021 182.56 25.2461 180.04L22.2941 190.264C31.0781 193.288 40.9421 194.296 51.3101 194.296C70.5341 194.296 83.6381 189.76 83.6381 177.304Z" fill="#1B352D"/>
<path d="M173.68 168.736C173.68 150.304 155.824 143.176 138.4 143.176C120.904 143.176 103.12 150.304 103.12 168.736C103.12 187.24 120.976 194.296 138.4 194.296C156.04 194.296 173.68 187.24 173.68 168.736ZM159.28 168.736C159.28 178.672 151.072 184.288 138.4 184.288C125.584 184.288 117.376 178.6 117.376 168.736C117.376 158.872 125.584 153.184 138.4 153.184C151.072 153.184 159.28 158.872 159.28 168.736ZM240.871 161.32C240.871 150.016 232.735 144.472 221.935 144.472H177.799V193H191.335V178.96H222.007C232.735 178.96 240.871 172.48 240.871 161.32ZM226.903 161.464C226.903 165.928 223.447 168.736 218.767 168.736H191.335V154.624H218.263C223.159 154.624 226.903 156.928 226.903 161.464ZM302.859 193V182.704H258.507V171.904H302.859V162.04H258.507V154.768H302.859V144.472H244.971V193H302.859ZM374.72 144.472H361.184V172.408L310.568 143.464H308.768V193H322.304V164.92L373.064 194.008H374.72V144.472Z" fill="#F7931E"/>
</svg>
